<?xml version="1.0" encoding="UTF-8"?>
<svg width="512" height="512" viewBox="0 0 512 512" xmlns="http://www.w3.org/2000/svg">
  <defs>
    <linearGradient id="bronzeGradient" x1="0%" y1="0%" x2="100%" y2="100%">
      <stop offset="0%" style="stop-color:#CD7F32"/>
      <stop offset="100%" style="stop-color:#8B4513"/>
    </linearGradient>
    <filter id="shadow">
      <feDropShadow dx="2" dy="2" stdDeviation="3" flood-opacity="0.3"/>
    </filter>
  </defs>
  <circle cx="256" cy="256" r="240" fill="url(#bronzeGradient)" filter="url(#shadow)"/>
  <g transform="translate(128, 128) scale(0.5)" fill="#FFF">
    <!-- FontAwesome Lemon Icon -->
    <path d="M488.6 23.4c31.2 31.2 31.2 81.9 0 113.1l-352 352c-31.2 31.2-81.9 31.2-113.1 0s-31.2-81.9 0-113.1l352-352c31.2-31.2 81.9-31.2 113.1 0zM443.3 68.7c-9.4-9.4-24.6-9.4-33.9 0L106.3 371.8c-9.4 9.4-9.4 24.6 0 33.9s24.6 9.4 33.9 0L443.3 102.6c9.4-9.4 9.4-24.6 0-33.9z"/>
  </g>
  <text x="256" y="400" text-anchor="middle" fill="#FFF" font-family="Arial, sans-serif" font-size="48" font-weight="bold">BRONZE</text>
</svg>
