<?xml version="1.0" encoding="UTF-8"?>
<svg width="512" height="512" viewBox="0 0 512 512" xmlns="http://www.w3.org/2000/svg">
  <defs>
    <linearGradient id="silverGradient" x1="0%" y1="0%" x2="100%" y2="100%">
      <stop offset="0%" style="stop-color:#C0C0C0"/>
      <stop offset="100%" style="stop-color:#808080"/>
    </linearGradient>
    <filter id="shadow">
      <feDropShadow dx="2" dy="2" stdDeviation="3" flood-opacity="0.3"/>
    </filter>
  </defs>
  <circle cx="256" cy="256" r="240" fill="url(#silverGradient)" filter="url(#shadow)"/>
  <g transform="translate(128, 128) scale(0.5)" fill="#FFF">
    <!-- FontAwesome Star Icon -->
    <path d="M316.9 18C311.6 7 300.4 0 288.1 0s-23.4 7-28.8 18L195 150.3 51.4 171.5c-12 1.8-22 10.2-25.7 21.7s-.7 24.2 7.9 32.7L137.8 329 113.2 474.7c-2 12 3 24.2 12.9 31.3s23 8 33.8 2.3l128.3-68.5 128.3 68.5c10.8 5.7 23.9 4.9 33.8-2.3s14.9-19.3 12.9-31.3L438.5 329 542.7 225.9c8.6-8.5 11.7-21.2 7.9-32.7s-13.7-19.9-25.7-21.7L381.2 150.3 316.9 18z"/>
  </g>
  <text x="256" y="400" text-anchor="middle" fill="#FFF" font-family="Arial, sans-serif" font-size="48" font-weight="bold">SILVER</text>
</svg>
